<?xml version="1.0" standalone="no"?>
<!DOCTYPE svg PUBLIC "-//W3C//DTD SVG 20010904//EN"
 "http://www.w3.org/TR/2001/REC-SVG-20010904/DTD/svg10.dtd">
<svg version="1.0" xmlns="http://www.w3.org/2000/svg"
 width="224.000000pt" height="224.000000pt" viewBox="0 0 224.000000 224.000000"
 preserveAspectRatio="xMidYMid meet">

<g transform="translate(0.000000,224.000000) scale(0.100000,-0.100000)"
fill="#000000" stroke="none">
<path d="M470 1849 l0 -70 33 22 c50 35 78 62 93 92 l15 27 -71 0 -70 0 0 -71z"/>
<path d="M652 1890 l-11 -30 39 20 c53 27 58 40 17 40 -30 0 -37 -4 -45 -30z"/>
<path d="M1039 1895 c16 -14 42 -40 56 -56 l25 -31 0 56 0 56 -56 0 -56 0 31
-25z"/>
<path d="M1180 1793 c0 -107 2 -125 13 -113 12 14 130 160 148 185 5 6 -9 9
-39 6 l-46 -3 17 26 17 26 -55 0 -55 0 0 -127z"/>
<path d="M1748 1884 c23 -19 49 -45 57 -57 14 -20 15 -18 15 36 l0 57 -57 0
-57 0 42 -36z"/>
<path d="M1530 1821 l0 -88 68 0 c79 0 124 -16 181 -68 l41 -37 0 30 c0 60
-76 122 -150 122 -52 0 -44 15 18 33 46 14 46 14 22 27 -14 8 -49 14 -78 14
l-53 1 26 21 27 21 -32 7 c-71 14 -70 15 -70 -83z"/>
<path d="M965 1875 c13 -31 18 -105 7 -105 -5 0 -21 9 -35 20 l-26 21 -17 -26
c-22 -33 -32 -32 -49 8 -13 28 -14 -10 -15 -335 l0 -368 146 0 145 0 -3 308
-3 307 -27 50 c-24 46 -61 88 -112 126 -18 13 -19 12 -11 -6z"/>
<path d="M752 1868 c-7 -9 -26 -21 -42 -28 -27 -11 -30 -17 -30 -55 0 -43 0
-43 41 -50 22 -4 43 -5 45 -2 3 2 4 37 2 77 -3 61 -5 71 -16 58z"/>
<path d="M1333 1773 c-51 -67 -52 -68 -28 -74 13 -4 34 -14 47 -23 12 -9 35
-16 51 -16 16 0 37 -5 48 -10 18 -10 19 -7 19 82 l0 93 -26 -32 c-14 -18 -29
-33 -34 -33 -5 0 -12 18 -17 41 l-8 40 -52 -68z"/>
<path d="M538 1765 c-34 -25 -50 -45 -57 -72 -18 -62 -13 -67 27 -32 20 19 56
43 80 53 37 17 42 23 42 53 0 28 -4 33 -22 33 -13 0 -44 -16 -70 -35z"/>
<path d="M678 1563 c-3 -114 -4 -118 -25 -121 -23 -3 -23 -2 -23 112 0 127 -2
130 -56 97 -38 -23 -77 -74 -93 -120 -7 -21 -11 -112 -11 -237 l0 -204 150 0
150 0 -2 293 -3 292 -42 3 -42 3 -3 -118z"/>
<path d="M1537 1673 c-4 -3 -7 -136 -7 -295 l0 -288 146 0 145 0 -3 204 c-3
202 -3 205 -28 232 -32 34 -79 54 -127 54 -49 0 -33 15 35 33 57 14 57 19 -5
51 -32 16 -143 23 -156 9z"/>
<path d="M1212 1617 l-32 -33 0 -247 0 -247 145 0 145 0 0 248 0 247 -38 0
c-36 0 -37 0 -34 -35 3 -42 -9 -63 -32 -54 -24 9 -40 42 -46 99 -5 49 -6 50
-40 53 -29 2 -41 -3 -68 -31z"/>
<path d="M470 770 l0 -200 25 0 25 0 0 200 0 200 -25 0 -25 0 0 -200z"/>
<path d="M630 770 l0 -200 25 0 c24 0 25 3 25 60 l0 60 80 0 c48 0 95 6 115
14 45 19 75 69 75 124 0 104 -57 141 -217 142 l-103 0 0 -200z m244 121 c26
-24 34 -68 20 -106 -12 -29 -60 -45 -139 -45 l-75 0 0 91 0 91 84 -3 c73 -4
88 -7 110 -28z"/>
<path d="M1091 908 c-16 -35 -56 -122 -90 -195 -33 -72 -61 -134 -61 -137 0
-3 11 -6 25 -6 23 0 32 13 80 118 30 64 65 139 78 167 l24 50 37 -79 c20 -43
36 -80 36 -82 0 -2 -24 -4 -53 -4 -48 0 -55 -3 -65 -25 l-12 -25 79 0 78 0 27
-60 c24 -53 30 -60 56 -60 l29 0 -92 198 c-85 180 -95 197 -120 200 -25 3 -30
-2 -56 -60z"/>
<path d="M1400 770 l0 -200 25 0 25 0 0 143 0 142 67 -143 c64 -139 67 -143
95 -140 27 3 34 14 91 137 l62 134 3 -137 3 -136 24 0 25 0 0 201 0 200 -27
-3 c-25 -3 -34 -18 -102 -165 -42 -90 -78 -163 -81 -163 -3 0 -39 74 -80 165
-70 154 -77 165 -102 165 l-28 0 0 -200z"/>
<path d="M1446 495 c-11 -8 -17 -18 -13 -21 4 -4 13 -2 20 4 10 9 16 9 25 0
17 -17 27 -2 12 17 -15 18 -20 18 -44 0z"/>
<path d="M1670 484 c0 -17 22 -14 28 4 2 7 -3 12 -12 12 -9 0 -16 -7 -16 -16z"/>
<path d="M892 468 c-20 -26 -63 -120 -57 -126 4 -4 12 1 19 11 17 22 62 22 74
1 21 -37 28 -7 14 59 -14 65 -28 81 -50 55z m28 -65 c0 -7 -9 -13 -20 -13 -23
0 -24 4 -9 32 9 17 13 18 20 7 5 -8 9 -20 9 -26z"/>
<path d="M990 426 c0 -13 -3 -38 -6 -55 -5 -24 -3 -31 9 -31 8 0 17 10 20 23
2 12 8 31 12 41 6 13 5 17 -2 13 -7 -5 -9 0 -6 13 4 14 0 20 -11 20 -10 0 -16
-9 -16 -24z"/>
<path d="M1043 443 c-18 -7 -16 -23 2 -23 12 0 14 -8 9 -41 -6 -33 -4 -41 6
-37 8 2 17 17 21 32 18 66 53 69 43 4 -6 -32 -4 -40 7 -36 14 5 33 84 23 99
-9 15 -44 10 -50 -6 -7 -18 -25 -20 -21 -3 2 13 -21 20 -40 11z"/>
<path d="M1196 428 c-22 -31 -21 -88 1 -88 9 0 25 8 36 18 19 16 20 16 14 0
-4 -12 -1 -18 8 -18 8 0 15 6 15 13 1 6 5 31 9 55 l8 42 -38 0 c-28 0 -42 -6
-53 -22z m64 -7 c0 -13 -40 -61 -51 -61 -12 0 -11 12 1 44 9 24 50 38 50 17z"/>
<path d="M1310 441 c0 -5 9 -11 20 -13 20 -3 20 -5 -9 -43 l-30 -41 45 -2 c24
-1 44 3 44 8 0 6 -12 10 -26 10 l-26 0 31 39 c17 21 31 42 31 45 0 3 -18 6
-40 6 -22 0 -40 -4 -40 -9z"/>
<path d="M1420 430 c-15 -15 -20 -31 -18 -53 3 -28 7 -32 35 -35 38 -4 66 30
61 75 -4 37 -47 44 -78 13z m50 -29 c0 -35 -26 -62 -36 -37 -9 24 4 66 21 66
10 0 15 -10 15 -29z"/>
<path d="M1526 399 c-7 -53 -3 -70 14 -53 16 16 21 104 6 104 -9 0 -16 -19
-20 -51z"/>
<path d="M1571 431 c-9 -16 -8 -18 9 -14 19 5 20 2 14 -36 -5 -33 -4 -41 8
-41 11 0 17 14 21 47 3 27 3 51 0 55 -9 15 -42 8 -52 -11z"/>
<path d="M1660 433 c0 -10 -3 -35 -6 -55 -5 -31 -4 -38 10 -38 10 0 16 8 16
24 0 13 3 38 6 55 5 24 3 31 -10 31 -9 0 -16 -8 -16 -17z"/>
<path d="M1726 428 c-9 -12 -16 -37 -16 -55 0 -28 4 -33 24 -33 13 0 26 7 29
14 4 10 1 13 -9 9 -9 -3 -14 2 -14 15 0 34 11 52 31 52 22 0 23 -4 10 -29 -11
-19 -4 -61 10 -61 4 0 11 17 14 38 4 20 9 45 12 55 7 28 -71 24 -91 -5z"/>
</g>
</svg>
